<?xml version="1.0" encoding="UTF-8"?>
<svg id="Warstwa_2" data-name="Warstwa 2" xmlns="http://www.w3.org/2000/svg" viewBox="0 0 841.89 240.94">
  <defs>
    <style>
      .cls-1 {
        fill: #000;
      }

      .cls-1, .cls-2 {
        stroke-width: 0px;
      }

      .cls-2 {
        fill: #fff;
      }
    </style>
  </defs>
  <g id="Warstwa_1-2" data-name="Warstwa 1">
    <g>
      <rect class="cls-1" width="841.89" height="240.94"/>
      <g>
        <g>
          <g>
            <path class="cls-2" d="M290.03,141.89c-3.8,0-7.2-.88-10.2-2.64-3-1.76-5.36-4.25-7.06-7.47-1.71-3.22-2.56-7.01-2.56-11.36s.87-8.12,2.6-11.32c1.73-3.19,4.09-5.68,7.06-7.47,2.97-1.79,6.36-2.68,10.16-2.68,5.23,0,9.46,1.31,12.68,3.92,3.22,2.62,5.27,6.21,6.15,10.78h-9.17c-.55-1.98-1.67-3.55-3.34-4.71-1.68-1.16-3.81-1.73-6.4-1.73-1.87,0-3.65.5-5.33,1.49-1.68.99-3.03,2.47-4.05,4.42-1.02,1.95-1.53,4.39-1.53,7.31s.51,5.29,1.53,7.27c1.02,1.98,2.37,3.48,4.05,4.5,1.68,1.02,3.45,1.53,5.33,1.53,2.64,0,4.76-.58,6.36-1.73,1.6-1.16,2.72-2.75,3.39-4.79h9.17c-1.1,4.52-3.25,8.09-6.44,10.74-3.19,2.64-7.32,3.96-12.39,3.96Z"/>
            <path class="cls-2" d="M310.1,140.9v-7.6h13.71v-41.54c0-1.82-.88-2.73-2.64-2.73h-9.91v-7.6h11.48c3.19,0,5.63.84,7.31,2.52,1.68,1.68,2.52,4.12,2.52,7.31v42.04h13.79v7.6h-36.26Z"/>
            <path class="cls-2" d="M367.41,141.89c-3.91,0-7.41-.88-10.49-2.64s-5.51-4.25-7.27-7.47c-1.76-3.22-2.64-7.01-2.64-11.36s.88-8.14,2.64-11.36c1.76-3.22,4.18-5.71,7.27-7.47,3.08-1.76,6.61-2.64,10.57-2.64s7.47.88,10.53,2.64c3.06,1.76,5.45,4.25,7.19,7.47,1.73,3.22,2.6,7.01,2.6,11.36s-.88,8.13-2.64,11.36c-1.76,3.22-4.17,5.71-7.23,7.47s-6.57,2.64-10.53,2.64ZM367.41,133.55c2.09,0,4.02-.47,5.78-1.4,1.76-.94,3.18-2.38,4.25-4.33,1.07-1.95,1.61-4.42,1.61-7.39s-.54-5.51-1.61-7.43c-1.07-1.93-2.48-3.36-4.21-4.3-1.73-.94-3.65-1.4-5.74-1.4s-4.02.47-5.78,1.4c-1.76.94-3.18,2.37-4.25,4.3-1.07,1.93-1.61,4.41-1.61,7.43,0,4.52,1.14,7.83,3.43,9.95,2.28,2.12,5,3.18,8.14,3.18Z"/>
            <path class="cls-2" d="M410.19,141.89c-4.96,0-8.71-1.53-11.27-4.58-2.56-3.06-3.84-7.5-3.84-13.34v-24.03h8.75v22.96c0,3.36.73,5.99,2.19,7.89,1.46,1.9,3.7,2.85,6.73,2.85s5.56-1.02,7.6-3.06c2.04-2.04,3.06-4.98,3.06-8.84v-21.8h8.75v40.96h-7.6l-.74-6.11h-.41c-1.1,1.98-2.81,3.66-5.12,5.04-2.31,1.38-5.01,2.06-8.09,2.06Z"/>
            <path class="cls-2" d="M458.01,141.89c-3.41,0-6.47-.81-9.17-2.44-2.7-1.62-4.83-4.03-6.4-7.23-1.57-3.19-2.35-7.13-2.35-11.81s.8-8.62,2.39-11.81c1.6-3.19,3.76-5.6,6.48-7.23,2.73-1.62,5.77-2.44,9.13-2.44,3.14,0,5.73.59,7.76,1.78,2.04,1.18,3.55,2.68,4.54,4.5v-23.79h8.75v59.46h-7.52l-.74-6.03h-.5c-1.1,2.15-2.66,3.85-4.67,5.12-2.01,1.27-4.58,1.9-7.72,1.9ZM459.83,133.55c3.14,0,5.74-1.1,7.81-3.3,2.06-2.2,3.1-5.48,3.1-9.83s-1.03-7.69-3.1-9.87-4.67-3.26-7.81-3.26-5.74,1.1-7.8,3.3c-2.06,2.2-3.1,5.51-3.1,9.91s1.03,7.61,3.1,9.79c2.06,2.18,4.67,3.26,7.8,3.26Z"/>
            <path class="cls-2" d="M512.19,141.89c-3.03,0-5.58-.62-7.64-1.86-2.06-1.24-3.65-2.96-4.75-5.16h-.5l-.74,6.03h-7.52v-59.46h8.75v23.79c.99-1.65,2.56-3.11,4.71-4.38,2.15-1.27,4.71-1.9,7.68-1.9,3.41,0,6.47.81,9.17,2.44,2.7,1.62,4.83,4.03,6.4,7.23,1.57,3.19,2.35,7.13,2.35,11.81s-.78,8.62-2.35,11.81c-1.57,3.19-3.7,5.6-6.4,7.23-2.7,1.62-5.75,2.44-9.17,2.44ZM510.37,133.55c3.14,0,5.74-1.09,7.8-3.26,2.06-2.17,3.1-5.44,3.1-9.79s-1.03-7.71-3.1-9.91c-2.06-2.2-4.67-3.3-7.8-3.3s-5.74,1.09-7.81,3.26c-2.06,2.17-3.1,5.46-3.1,9.87s1.03,7.63,3.1,9.83c2.06,2.2,4.67,3.3,7.81,3.3Z"/>
            <path class="cls-2" d="M552.74,141.89c-4.96,0-8.71-1.53-11.27-4.58-2.56-3.06-3.84-7.5-3.84-13.34v-24.03h8.75v22.96c0,3.36.73,5.99,2.19,7.89,1.46,1.9,3.7,2.85,6.73,2.85s5.56-1.02,7.6-3.06c2.04-2.04,3.06-4.98,3.06-8.84v-21.8h8.75v40.96h-7.6l-.74-6.11h-.41c-1.1,1.98-2.81,3.66-5.12,5.04s-5.01,2.06-8.09,2.06Z"/>
            <path class="cls-2" d="M582.72,140.9v-7.6h9.99v-23.04c0-1.82-.88-2.73-2.64-2.73h-6.52v-7.6h9.83c2.26,0,4.1.65,5.53,1.94,1.43,1.29,2.15,3.1,2.15,5.41v.99h.41c.61-3.08,1.91-5.41,3.92-6.98s4.94-2.35,8.8-2.35h6.36v9.25h-8.92c-3.25,0-5.75,1.13-7.52,3.39-1.76,2.26-2.64,4.96-2.64,8.09v13.63h12.72v7.6h-31.47Z"/>
            <path class="cls-2" d="M641.28,141.89c-5.4,0-9.69-1.27-12.88-3.8-3.19-2.53-5.01-5.89-5.45-10.08h9c.33,1.93,1.31,3.5,2.93,4.71,1.62,1.21,3.79,1.82,6.48,1.82s4.58-.54,5.99-1.61c1.4-1.07,2.11-2.32,2.11-3.76,0-2.09-.84-3.52-2.52-4.3-1.68-.77-4.14-1.35-7.39-1.73-2.81-.33-5.36-.98-7.64-1.94-2.29-.96-4.09-2.28-5.41-3.96-1.32-1.68-1.98-3.78-1.98-6.32,0-3.58,1.4-6.47,4.21-8.67,2.81-2.2,6.72-3.3,11.73-3.3s8.89,1.13,11.65,3.39c2.75,2.26,4.35,5.34,4.79,9.25h-8.42c-.22-1.65-1.07-2.96-2.56-3.92-1.49-.96-3.33-1.44-5.53-1.44s-4.05.43-5.37,1.28c-1.32.85-1.98,1.97-1.98,3.34,0,2.97,3.19,4.79,9.58,5.45,3.03.33,5.73.9,8.09,1.69,2.37.8,4.24,2.04,5.62,3.72,1.38,1.68,2.06,4.03,2.06,7.06.05,2.48-.65,4.71-2.11,6.69-1.46,1.98-3.47,3.55-6.03,4.71-2.56,1.16-5.55,1.73-8.96,1.73Z"/>
            <path class="cls-2" d="M683.56,140.9c-4.02,0-7.21-.98-9.58-2.93-2.37-1.95-3.55-5.44-3.55-10.45v-20.15h-10.32v-7.43h6.11c2.81,0,4.46-1.38,4.96-4.13l1.24-6.61h6.77v10.74h16.19v7.43h-16.19v19.99c0,2.15.48,3.65,1.45,4.5.96.85,2.63,1.28,5,1.28h9.58v7.76h-11.65Z"/>
            <path class="cls-2" d="M710.24,148.33l28.58-70.2h8.92l-28.66,70.2h-8.84Z"/>
          </g>
          <path class="cls-2" d="M248.53,135.13l-14.41-14.76c-1.43-1.46-1.43-3.79,0-5.25l14.41-14.76,5.37,5.25-11.85,12.13,11.85,12.13-5.37,5.25Z"/>
          <path class="cls-2" d="M751.46,135.13l-5.37-5.25,11.85-12.13-11.85-12.13,5.37-5.25,14.41,14.76c1.43,1.46,1.43,3.79,0,5.25l-14.41,14.76Z"/>
        </g>
        <g>
          <path class="cls-2" d="M174.22,92.53c-.9-18.44-15.93-32.81-34.43-32.81-14.95,0-28.42,9.9-32.91,24.15-17.66.64-31.93,15.4-31.93,33.1,0,16.2,12.08,30.28,28.09,32.75l.69.11v-8.84l-.48-.1c-11.34-2.31-19.58-12.37-19.58-23.92,0-13.47,10.96-24.43,24.43-24.43s24.4,10.96,24.4,24.43v59.96c-3.57,1.7-5.85,5.27-5.85,9.23,0,5.62,4.57,10.21,10.21,10.21s10.21-4.58,10.21-10.21c0-3.96-2.28-7.53-5.83-9.23v-59.96c0-15.24-10.64-28.68-25.4-32.22,3.88-9.77,13.41-16.29,23.95-16.29,14.21,0,25.78,11.55,25.78,25.76,0,10.85-6.87,20.6-17.1,24.29l-.4.14v9.07l.75-.19c12.45-3.4,22.09-13.67,24.72-26.26,9.45,1.68,16.49,10.05,16.49,19.68,0,10.75-8.72,19.72-19.45,20.01l-.58.02v8.73l.61-.02c15.53-.3,28.15-13.2,28.15-28.74,0-14.23-10.51-26.36-24.55-28.41ZM136.86,189.31c-1.75,0-3.16-1.41-3.16-3.16s1.41-3.16,3.16-3.16,3.16,1.41,3.16,3.16-1.41,3.16-3.16,3.16Z"/>
          <path class="cls-2" d="M119.29,159.73v-31.42l-.8.27c-2.71.96-5.29,2.26-7.66,3.86l-.27.18v27.09c-3.57,1.68-5.85,5.27-5.85,9.23,0,5.64,4.58,10.22,10.21,10.22s10.21-4.58,10.21-10.22c0-3.94-2.28-7.51-5.83-9.21ZM114.92,172.11c-1.75,0-3.16-1.43-3.16-3.17s1.41-3.16,3.16-3.16,3.16,1.43,3.16,3.16-1.41,3.17-3.16,3.17Z"/>
          <path class="cls-2" d="M163.16,159.71v-30.88l-.93.58c-2.37,1.49-4.85,2.74-7.42,3.72l-.38.14v26.45c-3.56,1.68-5.83,5.27-5.83,9.21,0,5.64,4.58,10.22,10.21,10.22s10.21-4.58,10.21-10.22c0-3.96-2.28-7.53-5.85-9.23ZM158.81,172.11c-1.75,0-3.16-1.43-3.16-3.17s1.41-3.16,3.16-3.16,3.16,1.43,3.16,3.16-1.41,3.17-3.16,3.17Z"/>
        </g>
      </g>
    </g>
  </g>
</svg>